<?xml version="1.0" encoding="UTF-8" standalone="no"?>
<!DOCTYPE svg PUBLIC "-//W3C//DTD SVG 1.1//EN"
 "http://www.w3.org/Graphics/SVG/1.1/DTD/svg11.dtd">
<!-- Generated by graphviz version 12.2.1 (20241206.2353)
 -->
<!-- Title: Tree Pages: 1 -->
<svg width="264pt" height="332pt"
 viewBox="0.00 0.00 264.00 332.00" xmlns="http://www.w3.org/2000/svg" xmlns:xlink="http://www.w3.org/1999/xlink">
<g id="graph0" class="graph" transform="scale(1 1) rotate(0) translate(4 328)">
<title>Tree</title>
<polygon fill="white" stroke="none" points="-4,4 -4,-328 260,-328 260,4 -4,4"/>
<!-- 1 -->
<g id="node1" class="node">
<title>1</title>
<ellipse fill="none" stroke="black" cx="27" cy="-90" rx="27" ry="18"/>
<text text-anchor="middle" x="27" y="-84.95" font-family="Times,serif" font-size="14.00">1(5)</text>
</g>
<!-- 9 -->
<g id="node9" class="node">
<title>9</title>
<ellipse fill="none" stroke="black" cx="63" cy="-18" rx="27" ry="18"/>
<text text-anchor="middle" x="63" y="-12.95" font-family="Times,serif" font-size="14.00">9(6)</text>
</g>
<!-- 1&#45;&#45;9 -->
<g id="edge7" class="edge">
<title>1&#45;&#45;9</title>
<path fill="none" stroke="black" d="M35.35,-72.76C41.17,-61.46 48.89,-46.44 54.7,-35.15"/>
</g>
<!-- 2 -->
<g id="node2" class="node">
<title>2</title>
<ellipse fill="none" stroke="black" cx="229" cy="-162" rx="27" ry="18"/>
<text text-anchor="middle" x="229" y="-156.95" font-family="Times,serif" font-size="14.00">2(2)</text>
</g>
<!-- 10 -->
<g id="node10" class="node">
<title>10</title>
<ellipse fill="none" stroke="black" cx="211" cy="-90" rx="30.88" ry="18"/>
<text text-anchor="middle" x="211" y="-84.95" font-family="Times,serif" font-size="14.00">10(1)</text>
</g>
<!-- 2&#45;&#45;10 -->
<g id="edge2" class="edge">
<title>2&#45;&#45;10</title>
<path fill="none" stroke="black" d="M224.64,-144.05C221.85,-133.21 218.25,-119.18 215.44,-108.28"/>
</g>
<!-- 3 -->
<g id="node3" class="node">
<title>3</title>
<ellipse fill="none" stroke="black" cx="157" cy="-234" rx="27" ry="18"/>
<text text-anchor="middle" x="157" y="-228.95" font-family="Times,serif" font-size="14.00">3(3)</text>
</g>
<!-- 4 -->
<g id="node4" class="node">
<title>4</title>
<ellipse fill="none" stroke="black" cx="157" cy="-162" rx="27" ry="18"/>
<text text-anchor="middle" x="157" y="-156.95" font-family="Times,serif" font-size="14.00">4(4)</text>
</g>
<!-- 3&#45;&#45;4 -->
<g id="edge8" class="edge">
<title>3&#45;&#45;4</title>
<path fill="none" stroke="black" d="M157,-215.7C157,-204.85 157,-190.92 157,-180.1"/>
</g>
<!-- 5 -->
<g id="node5" class="node">
<title>5</title>
<ellipse fill="none" stroke="black" cx="99" cy="-90" rx="27" ry="18"/>
<text text-anchor="middle" x="99" y="-84.95" font-family="Times,serif" font-size="14.00">5(6)</text>
</g>
<!-- 4&#45;&#45;5 -->
<g id="edge11" class="edge">
<title>4&#45;&#45;5</title>
<path fill="none" stroke="black" d="M144.41,-145.81C134.69,-134.07 121.28,-117.89 111.56,-106.16"/>
</g>
<!-- 4&#45;&#45;10 -->
<g id="edge4" class="edge">
<title>4&#45;&#45;10</title>
<path fill="none" stroke="black" d="M168.98,-145.46C177.81,-134.03 189.77,-118.52 198.67,-106.98"/>
</g>
<!-- 5&#45;&#45;9 -->
<g id="edge5" class="edge">
<title>5&#45;&#45;9</title>
<path fill="none" stroke="black" d="M90.65,-72.76C84.83,-61.46 77.11,-46.44 71.3,-35.15"/>
</g>
<!-- 6 -->
<g id="node6" class="node">
<title>6</title>
<ellipse fill="none" stroke="black" cx="229" cy="-234" rx="27" ry="18"/>
<text text-anchor="middle" x="229" y="-228.95" font-family="Times,serif" font-size="14.00">6(4)</text>
</g>
<!-- 6&#45;&#45;2 -->
<g id="edge6" class="edge">
<title>6&#45;&#45;2</title>
<path fill="none" stroke="black" d="M229,-215.7C229,-204.85 229,-190.92 229,-180.1"/>
</g>
<!-- 7 -->
<g id="node7" class="node">
<title>7</title>
<ellipse fill="none" stroke="black" cx="85" cy="-234" rx="27" ry="18"/>
<text text-anchor="middle" x="85" y="-228.95" font-family="Times,serif" font-size="14.00">7(2)</text>
</g>
<!-- 8 -->
<g id="node8" class="node">
<title>8</title>
<ellipse fill="none" stroke="black" cx="211" cy="-18" rx="27" ry="18"/>
<text text-anchor="middle" x="211" y="-12.95" font-family="Times,serif" font-size="14.00">8(5)</text>
</g>
<!-- 10&#45;&#45;8 -->
<g id="edge1" class="edge">
<title>10&#45;&#45;8</title>
<path fill="none" stroke="black" d="M211,-71.7C211,-60.85 211,-46.92 211,-36.1"/>
</g>
<!-- 11 -->
<g id="node11" class="node">
<title>11</title>
<ellipse fill="none" stroke="black" cx="81" cy="-162" rx="30.88" ry="18"/>
<text text-anchor="middle" x="81" y="-156.95" font-family="Times,serif" font-size="14.00">11(1)</text>
</g>
<!-- 11&#45;&#45;5 -->
<g id="edge10" class="edge">
<title>11&#45;&#45;5</title>
<path fill="none" stroke="black" d="M85.45,-143.7C88.24,-132.85 91.82,-118.92 94.6,-108.1"/>
</g>
<!-- 12 -->
<g id="node12" class="node">
<title>12</title>
<ellipse fill="none" stroke="black" cx="157" cy="-306" rx="30.88" ry="18"/>
<text text-anchor="middle" x="157" y="-300.95" font-family="Times,serif" font-size="14.00">12(3)</text>
</g>
<!-- 12&#45;&#45;6 -->
<g id="edge9" class="edge">
<title>12&#45;&#45;6</title>
<path fill="none" stroke="black" d="M172.27,-290.15C184.65,-278.12 202,-261.25 214.25,-249.35"/>
</g>
<!-- 12&#45;&#45;7 -->
<g id="edge3" class="edge">
<title>12&#45;&#45;7</title>
<path fill="none" stroke="black" d="M141.73,-290.15C129.35,-278.12 112,-261.25 99.75,-249.35"/>
</g>
</g>
</svg>
